<?xml version="1.0" encoding="UTF-8" standalone="no"?>
<svg
   xmlns:dc="http://purl.org/dc/elements/1.1/"
   xmlns:cc="http://creativecommons.org/ns#"
   xmlns:rdf="http://www.w3.org/1999/02/22-rdf-syntax-ns#"
   xmlns:svg="http://www.w3.org/2000/svg"
   xmlns="http://www.w3.org/2000/svg"
   xml:space="preserve"
   id="svg2"
   version="1.1"><metadata
     id="metadata8"><rdf:RDF><cc:Work
         rdf:about=""><dc:format>image/svg+xml</dc:format><dc:type
           rdf:resource="http://purl.org/dc/dcmitype/StillImage" /></cc:Work></rdf:RDF></metadata><defs
     id="defs6" /><g
     transform="matrix(1.3333333,0,0,-1.3333333,0,666.66667)"
     id="g10"><g
       transform="scale(0.1)"
       id="g12">
         <path
         id="path1228"
         style="fill:#c8edfc;fill-opacity:1;fill-rule:nonzero;stroke:none"
         d="m 2448.7,4045.14 v 41.67 h -41.67 v -41.67 h -41.67 v 41.67 h -41.66 -41.67 v -41.67 h -41.67 -41.66 v 41.67 h -41.67 -41.67 -41.66 v -41.67 -41.66 h -41.67 v 41.66 h -41.67 v 41.67 h -41.66 -41.67 v -41.67 h -41.67 -41.66 v 41.67 h -41.67 -41.67 -41.66 v -41.67 h 41.66 v -41.66 -41.67 h -41.66 -41.67 v 41.67 41.66 41.67 41.67 h -41.67 -41.66 v -41.67 h -41.67 v -41.67 h -41.67 -41.66 v -41.66 h -41.67 -41.67 -41.66 -41.67 -41.67 v 41.66 h -41.66 v 41.67 h -41.67 v 41.67 41.66 h -41.67 v -41.66 h -41.66 v -41.67 h -41.67 -41.671 v -41.67 h -41.664 -41.664 v 41.67 h -41.672 v -41.67 h -41.664 v -41.66 h -41.664 v -41.67 h -41.672 -41.664 -41.664 -41.672 -41.664 -41.664 -41.672 -41.664 -41.664 v -41.66 h 41.664 v -41.67 h 41.664 41.672 v -41.67 h 41.664 41.664 41.672 41.664 41.664 41.672 41.664 41.664 41.672 41.664 v -41.66 h 41.664 41.671 41.67 41.66 v -41.67 h 41.67 41.67 41.66 41.67 41.67 41.66 41.67 41.67 41.66 41.67 41.67 41.66 41.67 41.67 41.66 41.67 41.67 41.66 v 41.67 h 41.67 41.67 41.66 41.67 v 41.66 h 41.67 v 41.67 h 41.66 41.67 41.67 41.66 41.67 41.67 41.66 41.67 v 41.67 41.66 h 41.67 41.66 v 41.67 41.66 h -41.66" /><path
         id="path1230"
         style="fill:#c8edfc;fill-opacity:1;fill-rule:nonzero;stroke:none"
         d="m 2032.03,4128.48 h -41.67 v -41.67 h 41.67 v 41.67" /><path
         id="path1232"
         style="fill:#f0fafa;fill-opacity:1;fill-rule:nonzero;stroke:none"
         d="m 1698.7,3961.81 h 41.66 v 83.33 h -41.66 v -41.66 -41.67" /><path
         id="path1234"
         style="fill:#f0fafa;fill-opacity:1;fill-rule:nonzero;stroke:none"
         d="m 490.359,4003.48 v -41.67 h 83.336 v 41.67 h -41.664 -41.672" /><path
         id="path1236"
         style="fill:#f0fafa;fill-opacity:1;fill-rule:nonzero;stroke:none"
         d="m 2032.03,4003.48 h 41.67 v 41.66 h -41.67 v -41.66" /><path
         id="path1238"
         style="fill:#f0fafa;fill-opacity:1;fill-rule:nonzero;stroke:none"
         d="m 1407.03,4003.48 h 41.67 v 41.66 h -41.67 v -41.66" /><path
         id="path1240"
         style="fill:#f0fafa;fill-opacity:1;fill-rule:nonzero;stroke:none"
         d="m 1240.36,4003.48 h 41.67 v 41.66 h -41.67 v -41.66" /><path
         id="path1242"
         style="fill:#f0fafa;fill-opacity:1;fill-rule:nonzero;stroke:none"
         d="m 782.031,4003.48 h 41.664 v 41.66 h -41.664 v -41.66" /><path
         id="path1244"
         style="fill:#f0fafa;fill-opacity:1;fill-rule:nonzero;stroke:none"
         d="m 365.359,4003.48 h 41.672 v 41.66 h -41.672 v -41.66" /><path
         id="path1246"
         style="fill:#f0fafa;fill-opacity:1;fill-rule:nonzero;stroke:none"
         d="m 2365.36,4086.81 v -41.67 h 41.67 v 41.67 h -41.67" /><path
         id="path1248"
         style="fill:#f0fafa;fill-opacity:1;fill-rule:nonzero;stroke:none"
         d="m 2198.7,4086.81 v -41.67 h 83.33 v 41.67 h -41.67 -41.66" /><path
         id="path1250"
         style="fill:#f0fafa;fill-opacity:1;fill-rule:nonzero;stroke:none"
         d="m 1990.36,4086.81 v -41.67 h 41.67 v 41.67 h -41.67" /><path
         id="path1252"
         style="fill:#f0fafa;fill-opacity:1;fill-rule:nonzero;stroke:none"
         d="m 1823.7,4086.81 v -41.67 h 83.33 v 41.67 h -41.67 -41.66" /><path
         id="path1254"
         style="fill:#f0fafa;fill-opacity:1;fill-rule:nonzero;stroke:none"
         d="m 1657.03,4045.14 h 41.67 v 41.67 h -41.67 v -41.67" /><path
         id="path1256"
         style="fill:#f0fafa;fill-opacity:1;fill-rule:nonzero;stroke:none"
         d="m 1490.36,4045.14 h 41.67 v 41.67 h -41.67 v -41.67" /><path
         id="path1258"
         style="fill:#f0fafa;fill-opacity:1;fill-rule:nonzero;stroke:none"
         d="m 1198.7,4086.81 v -41.67 h 41.66 v 41.67 h -41.66" /><path
         id="path1260"
         style="fill:#f0fafa;fill-opacity:1;fill-rule:nonzero;stroke:none"
         d="m 948.695,4045.14 h 41.664 v 41.67 h -41.664 v -41.67" /><path
         id="path1262"
         style="fill:#f0fafa;fill-opacity:1;fill-rule:nonzero;stroke:none"
         d="m 823.695,4045.14 h 41.664 v 41.67 h -41.664 v -41.67" /><path
         id="path1264"
         style="fill:#f0fafa;fill-opacity:1;fill-rule:nonzero;stroke:none"
         d="m 1948.7,4128.48 v -41.67 h 41.66 v 41.67 h -41.66" /><path
         id="path1266"
         style="fill:#f0fafa;fill-opacity:1;fill-rule:nonzero;stroke:none"
         d="m 1698.7,4128.48 v -41.67 h 83.33 v 41.67 h -41.67 -41.66" /><path
         id="path1268"
         style="fill:#f0fafa;fill-opacity:1;fill-rule:nonzero;stroke:none"
         d="m 1532.03,4086.81 h 41.67 v 41.67 h -41.67 v -41.67" /><path
         id="path1270"
         style="fill:#f0fafa;fill-opacity:1;fill-rule:nonzero;stroke:none"
         d="m 1032.03,4086.81 h 41.67 v 41.67 h -41.67 v -41.67" /><path
         id="path1272"
         style="fill:#f0fafa;fill-opacity:1;fill-rule:nonzero;stroke:none"
         d="m 2032.03,4170.14 h -41.67 v -41.66 h 41.67 v 41.66" /><path
         id="path1274"
         style="fill:#f0fafa;fill-opacity:1;fill-rule:nonzero;stroke:none"
         d="m 1198.7,4170.14 h -41.67 v -83.33 h 41.67 v 41.67 41.66" /><path
         id="path1276"
         style="fill:#f0fafa;fill-opacity:1;fill-rule:nonzero;stroke:none"
         d="m 698.695,4128.48 h -83.336 v -41.67 h 125 v 41.67 41.66 h -41.664 v -41.66" /><path
         id="path1278"
         style="fill:#f0fafa;fill-opacity:1;fill-rule:nonzero;stroke:none"
         d="m 1115.36,4211.81 h -41.66 v -83.33 h 41.66 v 41.66 h 41.67 v 41.67 h -41.67" /><path
         id="path1280"
         style="fill:#f0fafa;fill-opacity:1;fill-rule:nonzero;stroke:none"
         d="m 657.031,4211.81 v -41.67 h 41.664 v 41.67 h -41.664" /><path
         id="path1282"
         style="fill:#f0fafa;fill-opacity:1;fill-rule:nonzero;stroke:none"
         d="m 1948.7,4253.48 h 83.33 v 41.66 h -166.67 v -41.66 -41.67 h 41.67 41.67 v 41.67" /><path
         id="path1284"
         style="fill:#f0fafa;fill-opacity:1;fill-rule:nonzero;stroke:none"
         d="m 2240.36,4295.14 h -41.66 v -41.66 h 41.66 v 41.66" /><path
         id="path1286"
         style="fill:#f0fafa;fill-opacity:1;fill-rule:nonzero;stroke:none"
         d="m 1032.03,4295.14 h -41.671 v -41.66 h 41.671 v 41.66" /><path
         id="path1288"
         style="fill:#f0fafa;fill-opacity:1;fill-rule:nonzero;stroke:none"
         d="m 657.031,4295.14 v -41.66 h 83.328 v 41.66 h -41.664 -41.664" /><path
         id="path1290"
         style="fill:#f0fafa;fill-opacity:1;fill-rule:nonzero;stroke:none"
         d="m 1115.36,4336.81 v 125 h -41.66 v -166.67 h 41.66 v 41.67" /><path
         id="path1292"
         style="fill:#f0fafa;fill-opacity:1;fill-rule:nonzero;stroke:none"
         d="m 823.695,4336.81 h -41.664 v -41.67 h 41.664 v 41.67" /><path
         id="path1294"
         style="fill:#f0fafa;fill-opacity:1;fill-rule:nonzero;stroke:none"
         d="m 1907.03,4378.48 h 41.67 v 83.33 h -41.67 v -41.67 -41.66" /><path
         id="path1296"
         style="fill:#f0fafa;fill-opacity:1;fill-rule:nonzero;stroke:none"
         d="m 1907.03,4503.48 h -41.67 v -41.67 h 41.67 v 41.67" /><path
         id="path1298"
         style="fill:#f0fafa;fill-opacity:1;fill-rule:nonzero;stroke:none"
         d="m 1698.7,4461.81 v 41.67 h -83.34 v -41.67 h 41.67 41.67" /><path
         id="path1300"
         style="fill:#f0fafa;fill-opacity:1;fill-rule:nonzero;stroke:none"
         d="m 1157.03,4503.48 v 41.66 h -41.67 v -83.33 h 41.67 v 41.67" /><path
         id="path1302"
         style="fill:#f0fafa;fill-opacity:1;fill-rule:nonzero;stroke:none"
         d="m 1740.36,4545.14 h -41.66 v -41.66 h 41.66 v 41.66" /><path
         id="path1304"
         style="fill:#f0fafa;fill-opacity:1;fill-rule:nonzero;stroke:none"
         d="m 1532.03,4545.14 h -41.67 v -41.66 h 41.67 v 41.66" /><path
         id="path1306"
         style="fill:#f0fafa;fill-opacity:1;fill-rule:nonzero;stroke:none"
         d="m 1407.03,4586.81 h 41.67 v 41.67 h -41.67 v -41.67" /><path
         id="path1308"
         style="fill:#f0fafa;fill-opacity:1;fill-rule:nonzero;stroke:none"
         d="m 1240.36,4628.48 h -41.66 v -41.67 h 41.66 v 41.67" /><path
         id="path1310"
         style="fill:#f0fafa;fill-opacity:1;fill-rule:nonzero;stroke:none"
         d="m 1365.36,4670.14 v -41.66 h 41.67 v 41.66 h -41.67" /><path
         id="path1312"
         style="fill:#ffffff;fill-opacity:1;fill-rule:nonzero;stroke:none"
         d="m 1657.03,4003.48 v -41.67 h 41.67 v 83.33 h -41.67 v -41.66" /><path
         id="path1314"
         style="fill:#ffffff;fill-opacity:1;fill-rule:nonzero;stroke:none"
         d="m 2240.36,4253.48 h -41.66 v 83.33 h -166.67 v -41.67 -41.66 h -41.67 -41.66 v -41.67 h -41.67 -41.67 v 41.67 41.66 h 41.67 v 41.67 41.67 41.66 41.67 h -41.67 v 41.67 h -41.66 v 41.66 h -41.67 -41.67 v -41.66 h -41.66 v -41.67 h -41.67 -41.67 -41.66 -41.67 v 41.67 h -41.67 v 41.66 41.67 h -41.66 -41.67 v 41.67 h -41.67 v 41.66 h -41.66 -41.67 v -41.66 h -41.67 v -41.67 h -41.66 -41.67 v -41.67 -41.66 -41.67 h -41.67 v -41.67 -41.66 -41.67 -41.67 h -41.66 v -41.66 h -41.67 -41.671 v 41.66 h -41.664 -41.664 -41.672 -41.664 -41.664 -41.672 v -41.66 h -41.664 -41.664 v -41.67 h 41.664 v -41.67 h 41.664 v -41.66 -41.67 h -41.664 -41.664 -41.672 v 41.67 h -41.664 -41.664 v -41.67 h -41.672 -41.664 -41.664 v -41.67 -41.66 h -41.672 v -41.67 h 41.672 41.664 41.664 v 41.67 h 41.672 41.664 v -41.67 h 41.664 41.672 41.664 41.664 41.672 v 41.67 41.66 h 41.664 v 41.67 h 41.664 41.672 v -41.67 h 41.664 v 41.67 h 41.664 41.671 v 41.67 h 41.67 v 41.66 41.67 h 41.66 41.67 v -41.67 h 41.67 v -41.66 -41.67 h 41.66 v -41.67 h 41.67 v -41.66 h 41.67 41.66 41.67 v 41.66 h 41.67 41.66 v 41.67 h 41.67 v 41.67 h 41.67 41.66 41.67 v -41.67 h 41.67 v 41.67 h 41.66 41.67 v -41.67 h 41.67 41.66 41.67 41.67 v 41.67 h 41.66 v 41.66 h 41.67 v -41.66 -41.67 -41.67 h 41.67 v 41.67 h 41.66 41.67 41.67 41.66 41.67 v 41.67 41.66 41.67 41.67 h -41.67" /><path
         id="path1316"
         style="fill:#c8edfc;fill-opacity:1;fill-rule:nonzero;stroke:none"
         d="m 1115.36,4170.14 h 41.67 v 41.67 h -41.67 v -41.67" /><path
         id="path1318"
         style="fill:#c8edfc;fill-opacity:1;fill-rule:nonzero;stroke:none"
         d="m 1073.7,4211.81 h 41.66 v 41.67 h -41.66 v -41.67" /><path
         id="path1320"
         style="fill:#c8edfc;fill-opacity:1;fill-rule:nonzero;stroke:none"
         d="m 1032.03,4211.81 h 41.67 v 41.67 h -41.67 v -41.67" /><path
         id="path1322"
         style="fill:#c8edfc;fill-opacity:1;fill-rule:nonzero;stroke:none"
         d="m 1073.7,4170.14 h 41.66 v 41.67 h -41.66 v -41.67" /><path
         id="path1324"
         style="fill:#c8edfc;fill-opacity:1;fill-rule:nonzero;stroke:none"
         d="m 657.031,4086.81 h 41.664 v 41.67 h -41.664 v -41.67" /><path
         id="path1326"
         style="fill:#c8edfc;fill-opacity:1;fill-rule:nonzero;stroke:none"
         d="m 657.031,4045.14 h 41.664 v 41.67 h -41.664 v -41.67" /><path
         id="path1328"
         style="fill:#c8edfc;fill-opacity:1;fill-rule:nonzero;stroke:none"
         d="m 698.695,4003.48 h 41.664 v 41.66 h -41.664 v -41.66" /><path
         id="path1330"
         style="fill:#c8edfc;fill-opacity:1;fill-rule:nonzero;stroke:none"
         d="m 698.695,3961.81 h 41.664 v 41.67 h -41.664 v -41.67" /><path
         id="path1332"
         style="fill:#c8edfc;fill-opacity:1;fill-rule:nonzero;stroke:none"
         d="m 657.031,3961.81 h 41.664 v 41.67 h -41.664 v -41.67" /><path
         id="path1334"
         style="fill:#c8edfc;fill-opacity:1;fill-rule:nonzero;stroke:none"
         d="m 365.359,3961.81 h 41.672 v 41.67 h -41.672 v -41.67" /><path
         id="path1336"
         style="fill:#c8edfc;fill-opacity:1;fill-rule:nonzero;stroke:none"
         d="m 407.031,3961.81 h 41.664 v 41.67 h -41.664 v -41.67" /><path
         id="path1338"
         style="fill:#c8edfc;fill-opacity:1;fill-rule:nonzero;stroke:none"
         d="m 615.359,3961.81 h 41.672 v 41.67 h -41.672 v -41.67" /><path
         id="path1340"
         style="fill:#c8edfc;fill-opacity:1;fill-rule:nonzero;stroke:none"
         d="m 1865.36,4295.14 h 41.67 v 41.67 h -41.67 v -41.67" /><path
         id="path1342"
         style="fill:#c8edfc;fill-opacity:1;fill-rule:nonzero;stroke:none"
         d="m 1865.36,4336.81 h 41.67 v 41.67 h -41.67 v -41.67" /><path
         id="path1344"
         style="fill:#c8edfc;fill-opacity:1;fill-rule:nonzero;stroke:none"
         d="m 1823.7,4253.48 h 41.66 v 41.66 h -41.66 v -41.66" /><path
         id="path1346"
         style="fill:#c8edfc;fill-opacity:1;fill-rule:nonzero;stroke:none"
         d="m 2157.03,4086.81 h 41.67 v 41.67 h -41.67 v -41.67" /><path
         id="path1348"
         style="fill:#c8edfc;fill-opacity:1;fill-rule:nonzero;stroke:none"
         d="m 2198.7,4128.48 h 41.66 v 41.66 h -41.66 v -41.66" /><path
         id="path1350"
         style="fill:#c8edfc;fill-opacity:1;fill-rule:nonzero;stroke:none"
         d="m 2198.7,4086.81 h 41.66 v 41.67 h -41.66 v -41.67" /><path
         id="path1352"
         style="fill:#c8edfc;fill-opacity:1;fill-rule:nonzero;stroke:none"
         d="m 2240.36,4128.48 h 41.67 v 41.66 h -41.67 v -41.66" /><path
         id="path1354"
         style="fill:#c8edfc;fill-opacity:1;fill-rule:nonzero;stroke:none"
         d="m 2240.36,4170.14 h 41.67 v 41.67 h -41.67 v -41.67" /><path
         id="path1356"
         style="fill:#c8edfc;fill-opacity:1;fill-rule:nonzero;stroke:none"
         d="m 1823.7,4295.14 h 41.66 v 41.67 h -41.66 v -41.67" /><path
         id="path1358"
         style="fill:#c8edfc;fill-opacity:1;fill-rule:nonzero;stroke:none"
         d="m 1782.03,4253.48 h 41.67 v 41.66 h -41.67 v -41.66" /><path
         id="path1360"
         style="fill:#c8edfc;fill-opacity:1;fill-rule:nonzero;stroke:none"
         d="m 1782.03,4211.81 h 41.67 v 41.67 h -41.67 v -41.67" /><path
         id="path1362"
         style="fill:#c8edfc;fill-opacity:1;fill-rule:nonzero;stroke:none"
         d="m 1740.36,4253.48 h 41.67 v 41.66 h -41.67 v -41.66" /><path
         id="path1364"
         style="fill:#c8edfc;fill-opacity:1;fill-rule:nonzero;stroke:none"
         d="m 1740.36,4211.81 h 41.67 v 41.67 h -41.67 v -41.67" /><path
         id="path1366"
         style="fill:#c8edfc;fill-opacity:1;fill-rule:nonzero;stroke:none"
         d="m 1698.7,4253.48 h 41.66 v 41.66 h -41.66 v -41.66" /><path
         id="path1368"
         style="fill:#c8edfc;fill-opacity:1;fill-rule:nonzero;stroke:none"
         d="m 1657.03,4295.14 h 41.67 v 41.67 h -41.67 v -41.67" /><path
         id="path1370"
         style="fill:#c8edfc;fill-opacity:1;fill-rule:nonzero;stroke:none"
         d="m 1073.7,4253.48 h 41.66 v 41.66 h -41.66 v -41.66" /><path
         id="path1372"
         style="fill:#c8edfc;fill-opacity:1;fill-rule:nonzero;stroke:none"
         d="m 1157.03,4253.48 h 41.67 v 41.66 h -41.67 v -41.66" /><path
         id="path1374"
         style="fill:#c8edfc;fill-opacity:1;fill-rule:nonzero;stroke:none"
         d="m 1198.7,4253.48 h 41.66 v 41.66 h -41.66 v -41.66" /><path
         id="path1376"
         style="fill:#c8edfc;fill-opacity:1;fill-rule:nonzero;stroke:none"
         d="m 1240.36,4253.48 h 41.67 v 41.66 h -41.67 v -41.66" /><path
         id="path1378"
         style="fill:#c8edfc;fill-opacity:1;fill-rule:nonzero;stroke:none"
         d="m 1282.03,4220.51 h 62.43 v 32.97 h -62.43 v -32.97" /><path
         id="path1380"
         style="fill:#c8edfc;fill-opacity:1;fill-rule:nonzero;stroke:none"
         d="m 1240.36,4211.81 h 41.67 v 41.67 h -41.67 v -41.67" /><path
         id="path1382"
         style="fill:#c8edfc;fill-opacity:1;fill-rule:nonzero;stroke:none"
         d="m 1198.7,4295.14 h 41.66 v 41.67 h -41.66 v -41.67" /><path
         id="path1384"
         style="fill:#c8edfc;fill-opacity:1;fill-rule:nonzero;stroke:none"
         d="m 1157.03,4295.14 h 41.67 v 41.67 h -41.67 v -41.67" /><path
         id="path1386"
         style="fill:#c8edfc;fill-opacity:1;fill-rule:nonzero;stroke:none"
         d="m 1115.36,4295.14 h 41.67 v 41.67 h -41.67 v -41.67" /><path
         id="path1388"
         style="fill:#c8edfc;fill-opacity:1;fill-rule:nonzero;stroke:none"
         d="m 1073.7,4295.14 h 41.66 v 41.67 h -41.66 v -41.67" /><path
         id="path1390"
         style="fill:#c8edfc;fill-opacity:1;fill-rule:nonzero;stroke:none"
         d="m 1073.7,4336.81 h 41.66 v 41.67 h -41.66 v -41.67" /><path
         id="path1392"
         style="fill:#c8edfc;fill-opacity:1;fill-rule:nonzero;stroke:none"
         d="m 1115.36,4336.81 h 41.67 v 41.67 h -41.67 v -41.67" /><path
         id="path1394"
         style="fill:#c8edfc;fill-opacity:1;fill-rule:nonzero;stroke:none"
         d="m 1073.7,4378.48 h 41.66 v 41.66 h -41.66 v -41.66" /></g></g></svg>